{"title":"Bangbus Malina Milan Ebony Ass OnThe BangBus {2bUnique}","uid":9893542,"size":890825487,"categoryP":"porn","categoryS":"movies","magnet":"?xt=urn:btih:60f7bb122b6cfe6dea009ada86cdf27cfd02c249&amp;dn=Bangbus+Malina+Milan+Ebony+Ass+OnThe+BangBus+%7B2bUnique%7D&amp;tr=udp%3A%2F%2Ftracker.openbittorrent.com%3A80&amp;tr=udp%3A%2F%2Fopen.demonii.com%3A1337&amp;tr=udp%3A%2F%2Ftracker.coppersurfer.tk%3A6969&amp;tr=udp%3A%2F%2Fexodus.desync.com%3A6969","seeders":0,"leechers":1,"uploader":"2bUnique","files":1,"time":1396670420,"description":"Description\n\n &lt;a href=&quot;\nhttp://new.bangbros.com/videos/ebony-ass-on-the-bangbus_113815.htm&quot; rel=&quot;nofollow&quot; target=&quot;_NEW&quot;&gt;\nhttp://new.bangbros.com/videos/ebony-ass-on-the-bangbus_113815.htm&lt;/a&gt;\n\nWhat a beautiful day it is to be riding on the BangBus! Especially when we run into a sexy chocolate honey sitting on a bench reading a book. We love them book-worms too. Malina Milan came a long for the ride and Mirko loved what he saw. next thing you know. Her huge ass was out getting pounded by our homie Mirko. Then we gave her the boot after getting a face full of cum. Hilarious!\n\nProducer :Bangbros\nProd Date: Nov 21, 2012\n\nGeneral\n\nFormat : MPEG-4\nFormat profile : Base Media\nCodec ID : isom\nFile size : 850 MiB\nDuration : 1h 16mn\nOverall bit rate mode : Variable\nOverall bit rate : 1 555 Kbps\n\nVideo\nID : 1\nFormat : AVC\nFormat/Info : Advanced Video Codec\nFormat profile : &lt;a class=&quot;__cf_email__&quot; href=&quot;/cdn-cgi/l/email-protection&quot; data-cfemail=&quot;eba68a8285aba7d8c5da&quot;&gt;[email&amp;#160;protected]&lt;/a&gt;&lt;script cf-hash='f9e31' type=&quot;text/javascript&quot;&gt;\n/* &lt;![CDATA[ */!function(){try{var t=&quot;currentScript&quot;in document?document.currentScript:function(){for(var t=document.getElementsByTagName(&quot;script&quot;),e=t.length;e--;)if(t[e].getAttribute(&quot;cf-hash&quot;))return t[e]}();if(t&amp;&amp;t.previousSibling){var e,r,n,i,c=t.previousSibling,a=c.getAttribute(&quot;data-cfemail&quot;);if(a){for(e=&quot;&quot;,r=parseInt(a.substr(0,2),16),n=2;a.length-n;n+=2)i=parseInt(a.substr(n,2),16)^r,e+=String.fromCharCode(i);e=document.createTextNode(e),c.parentNode.replaceChild(e,c)}}}catch(u){}}();/* ]]&gt; */&lt;/script&gt;\nFormat settings, CABAC : Yes\nFormat settings, ReFrames : 6 frames\nCodec ID : avc1\nCodec ID/Info : Advanced Video Coding\nDuration : 1h 16mn\nBit rate : 1 500 Kbps\nWidth : 852 pixels\nHeight : 480 pixels\nDisplay aspect ratio : 16:9\nFrame rate mode : Constant\nFrame rate : 29.970 fps\nColor space : YUV\nChroma subsampling : 4:2:0\nBit depth : 8 bits\nScan type : Progressive\nBits/(Pixel*Frame) : 0.122\nStream size : 815 MiB (96%)\nLanguage : English\n\n\nAudio\nID : 2\nFormat : AAC\nFormat/Info : Advanced Audio Codec\nFormat profile : LC\nCodec ID : 40\nDuration : 1h 16mn\nBit rate mode : Variable\nBit rate : 55.4 Kbps\nMaximum bit rate : 96.0 Kbps\nChannel(s) : 2 channels\nChannel positions : Front: L R\nSampling rate : 44.1 KHz\nCompression mode : Lossy\nStream size : 30.3 MiB (4%)\nLanguage : English","torrent":{"xt":"urn:btih:60f7bb122b6cfe6dea009ada86cdf27cfd02c249","amp;dn":"Bangbus+Malina+Milan+Ebony+Ass+OnThe+BangBus+%7B2bUnique%7D","amp;tr":["udp%3A%2F%2Ftracker.openbittorrent.com%3A80","udp%3A%2F%2Fopen.demonii.com%3A1337","udp%3A%2F%2Ftracker.coppersurfer.tk%3A6969","udp%3A%2F%2Fexodus.desync.com%3A6969"],"infoHash":"60f7bb122b6cfe6dea009ada86cdf27cfd02c249","infoHashBuffer":{"type":"Buffer","data":[96,247,187,18,43,108,254,109,234,0,154,218,134,205,242,124,253,2,194,73]},"announce":[],"urlList":[]}}